<?xml version="1.0" encoding="UTF-8"?>
<svg xmlns="http://www.w3.org/2000/svg" viewBox="0 0 128 128" width="128" height="128" role="img" aria-labelledby="title">
  <title id="title">DNA helix icon</title>
  <defs>
    <style>
      .outline { fill: none; stroke: #111111; stroke-width: 4.2; stroke-linecap: round; stroke-linejoin: round; }
      .thin { fill: none; stroke: #111111; stroke-width: 3.2; stroke-linecap: round; stroke-linejoin: round; }
      .micro { fill: none; stroke: #111111; stroke-width: 2.5; stroke-linecap: round; stroke-linejoin: round; }
      .white { fill: #ffffff; }
      .blue { fill: #1e9bef; }
      .red { fill: #ff4a3d; }
      .yellow { fill: #ffb21c; }
      .gray { fill: #efefef; }
      .black { fill: #111111; }
    </style>
  </defs>
  <g id="background-ring">
    <circle cx="64" cy="64" r="56" fill="#ffffff" stroke="#FF4234" stroke-width="6"/>
  </g>
  <g id="icon" transform="translate(0 0)">
    <g id="dna-helix">
      <path class="outline" d="M45 25c24 12 39 19 39 37 0 18-15 25-39 41"/>
      <path class="outline" d="M83 25C59 37 44 44 44 62c0 18 15 25 39 41"/>
      <path class="thin" d="M53 37l22 10" stroke="#ffb21c"/>
      <path class="thin" d="M48 52l31 15" stroke="#1e9bef"/>
      <path class="thin" d="M48 70l31 15" stroke="#ff4a3d"/>
      <path class="thin" d="M53 88l22 10" stroke="#ffb21c"/>
      <path class="thin" d="M57 30l14 7"/>
      <path class="thin" d="M57 96l14 7"/>
      <path class="thin" d="M43 35c-2 7-1 13 3 18"/>
      <path class="thin" d="M85 71c2 8 1 15-4 20"/>
    </g>
  </g>
</svg>
