<?xml version="1.0" encoding="UTF-8"?>
<svg xmlns="http://www.w3.org/2000/svg" viewBox="0 0 128 128" width="128" height="128" role="img" aria-labelledby="title">
  <title id="title">Laboratory flask icon</title>
  <defs>
    <style>
      .outline { fill: none; stroke: #111111; stroke-width: 4.2; stroke-linecap: round; stroke-linejoin: round; }
      .thin { fill: none; stroke: #111111; stroke-width: 3.2; stroke-linecap: round; stroke-linejoin: round; }
      .micro { fill: none; stroke: #111111; stroke-width: 2.5; stroke-linecap: round; stroke-linejoin: round; }
      .white { fill: #ffffff; }
      .blue { fill: #1e9bef; }
      .red { fill: #ff4a3d; }
      .yellow { fill: #ffb21c; }
      .gray { fill: #efefef; }
      .black { fill: #111111; }
    </style>
  </defs>
  <g id="background-ring">
    <circle cx="64" cy="64" r="56" fill="#ffffff" stroke="#FF4234" stroke-width="6"/>
  </g>
  <g id="icon" transform="translate(0 0)">
    <g id="laboratory-flask">
      <path class="outline white" d="M53 22h22"/>
      <path class="outline white" d="M56 22v40L35 99c-4 8 2 13 12 13h34c10 0 16-5 12-13L72 62V22"/>
      <path d="M45 84h38l10 17c4 7-2 11-12 11H47c-10 0-16-4-12-11z" fill="#1e9bef" stroke="#111111" stroke-width="3" stroke-linejoin="round"/>
      <path d="M45 84c12 7 25 7 38 0" fill="none" stroke="#ffffff" stroke-width="2.8" stroke-linecap="round"/>
      <circle cx="58" cy="97" r="4" fill="#ffffff" stroke="#111111" stroke-width="2.5"/>
      <circle cx="72" cy="92" r="3.5" fill="#ffffff" stroke="#111111" stroke-width="2.5"/>
      <circle cx="68" cy="104" r="2.5" fill="#ffffff" stroke="#111111" stroke-width="2"/>
      <path class="thin" d="M56 36h16"/>
      <path class="thin" d="M56 48h16"/>
    </g>
  </g>
</svg>
